<?xml version="1.0" encoding="utf-8"?>
<svg xmlns="http://www.w3.org/2000/svg" xmlns:xlink="http://www.w3.org/1999/xlink" style="margin: auto; background: none; display: block; shape-rendering: auto;" width="200px" height="200px" viewBox="0 0 100 100" preserveAspectRatio="xMidYMid">
<g transform="rotate(0 50 50)">
  <rect x="47.5" y="21.5" rx="2.5" ry="2.5" width="5" height="5" fill="#1d3f72">
    <animate attributeName="opacity" values="1;0" keyTimes="0;1" dur="0.6896551724137931s" begin="-0.6596701649175412s" repeatCount="indefinite"></animate>
  </rect>
</g><g transform="rotate(15.652173913043478 50 50)">
  <rect x="47.5" y="21.5" rx="2.5" ry="2.5" width="5" height="5" fill="#1d3f72">
    <animate attributeName="opacity" values="1;0" keyTimes="0;1" dur="0.6896551724137931s" begin="-0.6296851574212893s" repeatCount="indefinite"></animate>
  </rect>
</g><g transform="rotate(31.304347826086957 50 50)">
  <rect x="47.5" y="21.5" rx="2.5" ry="2.5" width="5" height="5" fill="#1d3f72">
    <animate attributeName="opacity" values="1;0" keyTimes="0;1" dur="0.6896551724137931s" begin="-0.5997001499250375s" repeatCount="indefinite"></animate>
  </rect>
</g><g transform="rotate(46.95652173913044 50 50)">
  <rect x="47.5" y="21.5" rx="2.5" ry="2.5" width="5" height="5" fill="#1d3f72">
    <animate attributeName="opacity" values="1;0" keyTimes="0;1" dur="0.6896551724137931s" begin="-0.5697151424287856s" repeatCount="indefinite"></animate>
  </rect>
</g><g transform="rotate(62.608695652173914 50 50)">
  <rect x="47.5" y="21.5" rx="2.5" ry="2.5" width="5" height="5" fill="#1d3f72">
    <animate attributeName="opacity" values="1;0" keyTimes="0;1" dur="0.6896551724137931s" begin="-0.5397301349325337s" repeatCount="indefinite"></animate>
  </rect>
</g><g transform="rotate(78.26086956521739 50 50)">
  <rect x="47.5" y="21.5" rx="2.5" ry="2.5" width="5" height="5" fill="#1d3f72">
    <animate attributeName="opacity" values="1;0" keyTimes="0;1" dur="0.6896551724137931s" begin="-0.5097451274362819s" repeatCount="indefinite"></animate>
  </rect>
</g><g transform="rotate(93.91304347826087 50 50)">
  <rect x="47.5" y="21.5" rx="2.5" ry="2.5" width="5" height="5" fill="#1d3f72">
    <animate attributeName="opacity" values="1;0" keyTimes="0;1" dur="0.6896551724137931s" begin="-0.47976011994003s" repeatCount="indefinite"></animate>
  </rect>
</g><g transform="rotate(109.56521739130434 50 50)">
  <rect x="47.5" y="21.5" rx="2.5" ry="2.5" width="5" height="5" fill="#1d3f72">
    <animate attributeName="opacity" values="1;0" keyTimes="0;1" dur="0.6896551724137931s" begin="-0.4497751124437781s" repeatCount="indefinite"></animate>
  </rect>
</g><g transform="rotate(125.21739130434783 50 50)">
  <rect x="47.5" y="21.5" rx="2.5" ry="2.5" width="5" height="5" fill="#1d3f72">
    <animate attributeName="opacity" values="1;0" keyTimes="0;1" dur="0.6896551724137931s" begin="-0.4197901049475262s" repeatCount="indefinite"></animate>
  </rect>
</g><g transform="rotate(140.8695652173913 50 50)">
  <rect x="47.5" y="21.5" rx="2.5" ry="2.5" width="5" height="5" fill="#1d3f72">
    <animate attributeName="opacity" values="1;0" keyTimes="0;1" dur="0.6896551724137931s" begin="-0.38980509745127434s" repeatCount="indefinite"></animate>
  </rect>
</g><g transform="rotate(156.52173913043478 50 50)">
  <rect x="47.5" y="21.5" rx="2.5" ry="2.5" width="5" height="5" fill="#1d3f72">
    <animate attributeName="opacity" values="1;0" keyTimes="0;1" dur="0.6896551724137931s" begin="-0.35982008995502246s" repeatCount="indefinite"></animate>
  </rect>
</g><g transform="rotate(172.17391304347825 50 50)">
  <rect x="47.5" y="21.5" rx="2.5" ry="2.5" width="5" height="5" fill="#1d3f72">
    <animate attributeName="opacity" values="1;0" keyTimes="0;1" dur="0.6896551724137931s" begin="-0.3298350824587706s" repeatCount="indefinite"></animate>
  </rect>
</g><g transform="rotate(187.82608695652175 50 50)">
  <rect x="47.5" y="21.5" rx="2.5" ry="2.5" width="5" height="5" fill="#1d3f72">
    <animate attributeName="opacity" values="1;0" keyTimes="0;1" dur="0.6896551724137931s" begin="-0.29985007496251875s" repeatCount="indefinite"></animate>
  </rect>
</g><g transform="rotate(203.47826086956522 50 50)">
  <rect x="47.5" y="21.5" rx="2.5" ry="2.5" width="5" height="5" fill="#1d3f72">
    <animate attributeName="opacity" values="1;0" keyTimes="0;1" dur="0.6896551724137931s" begin="-0.2698650674662669s" repeatCount="indefinite"></animate>
  </rect>
</g><g transform="rotate(219.1304347826087 50 50)">
  <rect x="47.5" y="21.5" rx="2.5" ry="2.5" width="5" height="5" fill="#1d3f72">
    <animate attributeName="opacity" values="1;0" keyTimes="0;1" dur="0.6896551724137931s" begin="-0.239880059970015s" repeatCount="indefinite"></animate>
  </rect>
</g><g transform="rotate(234.7826086956522 50 50)">
  <rect x="47.5" y="21.5" rx="2.5" ry="2.5" width="5" height="5" fill="#1d3f72">
    <animate attributeName="opacity" values="1;0" keyTimes="0;1" dur="0.6896551724137931s" begin="-0.2098950524737631s" repeatCount="indefinite"></animate>
  </rect>
</g><g transform="rotate(250.43478260869566 50 50)">
  <rect x="47.5" y="21.5" rx="2.5" ry="2.5" width="5" height="5" fill="#1d3f72">
    <animate attributeName="opacity" values="1;0" keyTimes="0;1" dur="0.6896551724137931s" begin="-0.17991004497751123s" repeatCount="indefinite"></animate>
  </rect>
</g><g transform="rotate(266.0869565217391 50 50)">
  <rect x="47.5" y="21.5" rx="2.5" ry="2.5" width="5" height="5" fill="#1d3f72">
    <animate attributeName="opacity" values="1;0" keyTimes="0;1" dur="0.6896551724137931s" begin="-0.14992503748125938s" repeatCount="indefinite"></animate>
  </rect>
</g><g transform="rotate(281.7391304347826 50 50)">
  <rect x="47.5" y="21.5" rx="2.5" ry="2.5" width="5" height="5" fill="#1d3f72">
    <animate attributeName="opacity" values="1;0" keyTimes="0;1" dur="0.6896551724137931s" begin="-0.1199400299850075s" repeatCount="indefinite"></animate>
  </rect>
</g><g transform="rotate(297.39130434782606 50 50)">
  <rect x="47.5" y="21.5" rx="2.5" ry="2.5" width="5" height="5" fill="#1d3f72">
    <animate attributeName="opacity" values="1;0" keyTimes="0;1" dur="0.6896551724137931s" begin="-0.08995502248875561s" repeatCount="indefinite"></animate>
  </rect>
</g><g transform="rotate(313.04347826086956 50 50)">
  <rect x="47.5" y="21.5" rx="2.5" ry="2.5" width="5" height="5" fill="#1d3f72">
    <animate attributeName="opacity" values="1;0" keyTimes="0;1" dur="0.6896551724137931s" begin="-0.05997001499250375s" repeatCount="indefinite"></animate>
  </rect>
</g><g transform="rotate(328.69565217391306 50 50)">
  <rect x="47.5" y="21.5" rx="2.5" ry="2.5" width="5" height="5" fill="#1d3f72">
    <animate attributeName="opacity" values="1;0" keyTimes="0;1" dur="0.6896551724137931s" begin="-0.029985007496251874s" repeatCount="indefinite"></animate>
  </rect>
</g><g transform="rotate(344.3478260869565 50 50)">
  <rect x="47.5" y="21.5" rx="2.5" ry="2.5" width="5" height="5" fill="#1d3f72">
    <animate attributeName="opacity" values="1;0" keyTimes="0;1" dur="0.6896551724137931s" begin="0s" repeatCount="indefinite"></animate>
  </rect>
</g>
<!-- [ldio] generated by https://loading.io/ --></svg>